<svg xmlns="http://www.w3.org/2000/svg" width="283" height="31" viewBox="0 0 283 31">
  <metadata><?xpacket begin="﻿" id="W5M0MpCehiHzreSzNTczkc9d"?>
<x:xmpmeta xmlns:x="adobe:ns:meta/" x:xmptk="Adobe XMP Core 5.6-c138 79.159824, 2016/09/14-01:09:01        ">
   <rdf:RDF xmlns:rdf="http://www.w3.org/1999/02/22-rdf-syntax-ns#">
      <rdf:Description rdf:about=""/>
   </rdf:RDF>
</x:xmpmeta>
                                                                                                    
                                                                                                    
                                                                                                    
                                                                                                    
                                                                                                    
                                                                                                    
                                                                                                    
                                                                                                    
                                                                                                    
                                                                                                    
                                                                                                    
                                                                                                    
                                                                                                    
                                                                                                    
                                                                                                    
                                                                                                    
                                                                                                    
                                                                                                    
                                                                                                    
                                                                                                    
                           
<?xpacket end="w"?></metadata>
<defs>
    <style>
      .cls-1 {
        fill: #5a5a5a;
      }

      .cls-1, .cls-2, .cls-3 {
        fill-rule: evenodd;
      }

      .cls-2 {
        fill: #b4b4b4;
      }

      .cls-3 {
        fill: #fe000c;
      }
    </style>
  </defs>
  <path id="Shape_1_copy_2" data-name="Shape 1 copy 2" class="cls-1" d="M208.3,9.054A9.992,9.992,0,0,0,203.7,8.043a6.5,6.5,0,0,0-5,1.977,7.291,7.291,0,0,0-1.843,5.175,7.376,7.376,0,0,0,1.912,5.3,6.551,6.551,0,0,0,4.976,2.014,10.093,10.093,0,0,0,2.74-.322,10.8,10.8,0,0,0,2.189-.9V22.44a9.482,9.482,0,0,1-2.074.795,12.1,12.1,0,0,1-3.017.31,7.48,7.48,0,0,1-5.62-2.289,8.262,8.262,0,0,1-2.212-5.992,8.22,8.22,0,0,1,2.2-6.015,7.871,7.871,0,0,1,5.885-2.242,11.217,11.217,0,0,1,4.469.851v1.2ZM220.279,16.3v6.969h-0.99V16.574a4.058,4.058,0,0,0-.726-2.668,2.946,2.946,0,0,0-2.361-.851,6.212,6.212,0,0,0-2.026.356,8.367,8.367,0,0,0-1.82.862v8.993h-0.991V6.294h0.991v6.969a6.566,6.566,0,0,1,1.8-.8,7.455,7.455,0,0,1,2.189-.346,3.992,3.992,0,0,1,2.925,1A4.326,4.326,0,0,1,220.279,16.3Zm12.576,1.771H224.08v0.115a4.487,4.487,0,0,0,1.174,3.174,4.157,4.157,0,0,0,3.2,1.266,6.664,6.664,0,0,0,2.074-.322,6.539,6.539,0,0,0,1.635-.76V22.6a7.791,7.791,0,0,1-3.894.988,5.05,5.05,0,0,1-3.8-1.473,5.6,5.6,0,0,1-1.428-4.07,6.266,6.266,0,0,1,1.44-4.3,4.859,4.859,0,0,1,3.835-1.633,4.1,4.1,0,0,1,3.444,1.461,5.933,5.933,0,0,1,1.139,3.76Zm-0.989-.967a4.453,4.453,0,0,0-.911-2.909,3.285,3.285,0,0,0-2.706-1.116,3.863,3.863,0,0,0-2.833,1.093,4.614,4.614,0,0,0-1.29,2.932h7.74Zm19.439,6.164h-0.991V15.839a2.832,2.832,0,0,0-.7-2.059,3.194,3.194,0,0,0-2.361-.725,7.849,7.849,0,0,0-1.969.265,6.58,6.58,0,0,0-1.624.609,3.173,3.173,0,0,1,.2.759,6.4,6.4,0,0,1,.08,1.012v7.567h-0.991v-7.5a2.574,2.574,0,0,0-.748-2.116,4.006,4.006,0,0,0-2.476-.6,12.214,12.214,0,0,0-3.155.436v9.775h-0.991V12.8a15.393,15.393,0,0,1,4.307-.69,6.477,6.477,0,0,1,1.958.276,3.039,3.039,0,0,1,1.313.736,10.876,10.876,0,0,1,1.877-.7,8.618,8.618,0,0,1,2.361-.31,4,4,0,0,1,3.029.955,3.684,3.684,0,0,1,.887,2.61v7.589Zm3.362-13.592V8.364h1.29V9.675h-1.29Zm0.139,13.592V12.389H255.8V23.268h-0.991Zm12.715-9.383a6.077,6.077,0,0,0-1.451-.575,6.874,6.874,0,0,0-1.8-.231,4.422,4.422,0,0,0-3.305,1.254,4.725,4.725,0,0,0-1.233,3.462,4.94,4.94,0,0,0,1.244,3.473,4.285,4.285,0,0,0,3.317,1.357,8.02,8.02,0,0,0,2.027-.242,6.84,6.84,0,0,0,1.474-.541v1.035a7.389,7.389,0,0,1-1.52.506,8.679,8.679,0,0,1-1.958.207,5.487,5.487,0,0,1-4.089-1.576,5.625,5.625,0,0,1-1.554-4.127,5.705,5.705,0,0,1,1.566-4.187,5.567,5.567,0,0,1,4.147-1.587,7.136,7.136,0,0,1,3.132.645v1.127Zm10.963,8.833a9.829,9.829,0,0,1-1.9.6,11.71,11.71,0,0,1-2.522.252,5.325,5.325,0,0,1-3.213-.828,2.941,2.941,0,0,1-1.118-2.529,3.117,3.117,0,0,1,1.164-2.553,5.719,5.719,0,0,1,3.628-.943,14.922,14.922,0,0,1,3.017.3V16.461a3.452,3.452,0,0,0-.806-2.622,3.6,3.6,0,0,0-2.487-.736,8.963,8.963,0,0,0-3.686.943V13.033a8.971,8.971,0,0,1,1.716-.632,7.7,7.7,0,0,1,2.038-.288,4.257,4.257,0,0,1,3.2,1.023,4.471,4.471,0,0,1,.967,3.163v6.418Zm-0.944-.668v-4.07l-0.507-.07a19.541,19.541,0,0,0-2.6-.207,4.649,4.649,0,0,0-2.753.68,2.087,2.087,0,0,0-.932,1.76q0,2.461,3.431,2.461A11.29,11.29,0,0,0,277.54,22.049Zm4.468,1.219V6.294H283V23.268h-0.991Z"/>
  <path id="Shape_1_copy" data-name="Shape 1 copy" class="cls-2" d="M173.754,29h-1V0h1V29Z"/>
  <path class="cls-3" d="M59.788,7.6h4.106V9.1A6.3,6.3,0,0,1,68.4,7.3c3.1,0,5.608,2.4,5.608,6.1V23H69.6V14.6c0-2.1-1-3.3-2.8-3.3-1.7,0-2.8,1.2-2.8,3.3V23H59.588l0.2-15.4h0Zm46.167,7.7a3.74,3.74,0,0,1,3.706-3.9,3.682,3.682,0,0,1,3.7,3.9,3.74,3.74,0,0,1-3.7,3.9A3.8,3.8,0,0,1,105.955,15.3Zm-4.306,0a8.012,8.012,0,1,0,8.012-8A7.965,7.965,0,0,0,101.649,15.3Zm-55.982,0a3.74,3.74,0,0,1,3.705-3.9,3.683,3.683,0,0,1,3.705,3.9,3.74,3.74,0,0,1-3.705,3.9A3.936,3.936,0,0,1,45.667,15.3Zm-4.306,0a8.012,8.012,0,1,0,8.012-8A7.965,7.965,0,0,0,41.361,15.3ZM138.9,7.6h4.407V23H138.9V7.6Zm0-5.6h4.407V5.9H138.9V2Zm7.912,0h4.406V22.9h-4.406V2ZM131.793,15.3a3.657,3.657,0,0,1-3.705,3.8,3.8,3.8,0,0,1-3.806-3.8A3.756,3.756,0,1,1,131.793,15.3Zm-7.411,7.6V21.7a7.005,7.005,0,0,0,4.607,1.5c3.805,0,7.311-3.5,7.311-8,0-4.6-3.305-8-7.211-8a6.307,6.307,0,0,0-4.607,1.6V2h-4.306V22.9h4.206Zm-103.751,0,4.607-6.1,2.9,3-6.61,8.5H26.74l4.206-5.6L38.857,31h6.209L33.75,19.2,42.763,7.6H37.555l-6.61,8.7-2.9-3,7.411-9.5H30.345l-5.007,6.7-2.7-2.9H16.525L22.734,14l-7.01,9C15.523,22.9,20.631,22.9,20.631,22.9ZM1,2h13.52V5.9H5.609v4.3h8.512V14H5.609v5h8.913v4H1V2ZM77.614,2h7.211l3.405,15.2h0.2L92.035,2h7.01V22.9H94.739V7.2h-0.2L90.733,22.9H85.926L82.12,7.2h-0.2V22.9H77.614V2h0Z"/>
</svg>
